<svg width="293" height="282" viewBox="0 0 293 282" fill="none" xmlns="http://www.w3.org/2000/svg">
<g clip-path="url(#clip0)">
<path d="M290.713 141C290.713 217.101 226.422 279 146.856 279C67.2905 279 3 217.101 3 141C3 64.8986 67.2905 3 146.856 3C226.422 3 290.713 64.8986 290.713 141Z" fill="#DF7656" stroke="black" stroke-width="6"/>
<path d="M233.438 29.8479C233.303 29.889 233.166 29.9312 233.027 29.9746C229.651 31.026 224.857 32.7728 219.075 35.5736C207.507 41.1773 192 50.9934 176.01 67.8744C144.335 101.312 111.01 162.196 102.28 272.235C100.758 271.839 98.7846 271.304 96.4874 270.635C90.9213 269.014 83.4869 266.612 75.9655 263.48C68.4187 260.339 60.9197 256.518 55.1423 252.101C49.3803 247.696 45.7785 243.043 45.0006 238.274C45.0567 227.766 48.9675 179.099 68.0051 128.471C87.1696 77.5049 121.379 25.2633 181.676 7.22442C181.689 7.22312 181.703 7.22177 181.717 7.22038C181.912 7.20157 182.217 7.17583 182.625 7.15261C183.439 7.10616 184.661 7.06992 186.222 7.11923C189.347 7.2179 193.822 7.65871 199.123 9.03949C208.814 11.564 221.326 17.2444 233.438 29.8479Z" fill="#102D71" stroke="black" stroke-width="6"/>
</g>
<defs>
<clipPath id="clip0">
<rect width="293" height="282" fill="white"/>
</clipPath>
</defs>
</svg>
