<svg width="599" height="652" viewBox="0 0 599 652" fill="none" xmlns="http://www.w3.org/2000/svg">
<path d="M565.376 274.35L492.461 254.94L86.3568 237.63C86.3568 237.63 88.5425 262.284 133.655 274.787C149.218 279.158 565.376 274.35 565.376 274.35Z" fill="#F2DF55" stroke="black" stroke-width="6" stroke-miterlimit="10"/>
<path d="M478.909 273.475C478.909 273.475 279.223 305.474 177.369 294.021L156.999 112.52C156.999 112.52 154.551 31.9987 161.108 27.8896C167.665 23.7805 205.958 93.6355 205.958 93.6355C205.958 93.6355 332.292 74.7511 415.349 82.095C415.349 82.095 443.85 0 450.408 0C456.965 0 478.122 88.7396 476.461 94.4224C474.8 100.193 482.144 213.587 478.909 273.475Z" fill="#F4B8CD"/>
<path d="M192.232 95.4716L166.441 100.892L167.49 58.0523L192.232 95.4716Z" fill="#E28FAF"/>
<path d="M460.462 77.5487L430.911 78.0733L446.473 39.6049L460.462 77.5487Z" fill="#E28FAF"/>
<path d="M386.148 212.713C387.634 213.5 389.558 213.237 390.782 212.013C395.415 207.292 405.907 195.664 400.836 192.342C395.765 189.02 380.203 192.866 373.996 194.615C371.81 195.227 370.586 197.588 371.373 199.686C372.422 202.746 376.006 207.292 386.148 212.713Z" fill="#072C75"/>
<path d="M388.771 214.024L389.558 237.28" stroke="black" stroke-width="3" stroke-miterlimit="10" stroke-linecap="round"/>
<path d="M300.206 224.69L239.094 220.756" stroke="black" stroke-width="3" stroke-miterlimit="10" stroke-linecap="round"/>
<path d="M300.731 235.357L238.482 249.87" stroke="black" stroke-width="3" stroke-miterlimit="10" stroke-linecap="round"/>
<path d="M304.053 242.089L256.317 276.186" stroke="black" stroke-width="3" stroke-miterlimit="10" stroke-linecap="round"/>
<path d="M463.522 203.97L518.514 175.993" stroke="black" stroke-width="3" stroke-miterlimit="10" stroke-linecap="round"/>
<path d="M468.505 214.024L532.415 203.97" stroke="black" stroke-width="3" stroke-miterlimit="10" stroke-linecap="round"/>
<path d="M470.167 224.166L522.973 239.815" stroke="black" stroke-width="3" stroke-miterlimit="10" stroke-linecap="round"/>
<path d="M320.664 189.806C339.109 189.806 354.062 174.736 354.062 156.147C354.062 137.557 339.109 122.487 320.664 122.487C302.219 122.487 287.267 137.557 287.267 156.147C287.267 174.736 302.219 189.806 320.664 189.806Z" fill="#EFC411"/>
<path d="M321.276 181.151C334.845 181.151 345.844 170.074 345.844 156.409C345.844 142.744 334.845 131.667 321.276 131.667C307.708 131.667 296.709 142.744 296.709 156.409C296.709 170.074 307.708 181.151 321.276 181.151Z" fill="#072C75"/>
<path d="M310.481 148.715C313.204 145.58 313.993 141.806 312.243 140.287C310.494 138.767 306.867 140.076 304.144 143.211C301.421 146.346 300.632 150.12 302.382 151.64C304.132 153.16 307.758 151.85 310.481 148.715Z" fill="white"/>
<path d="M426.802 183.424C445.247 183.424 460.2 168.354 460.2 149.764C460.2 131.175 445.247 116.105 426.802 116.105C408.357 116.105 393.404 131.175 393.404 149.764C393.404 168.354 408.357 183.424 426.802 183.424Z" fill="#EFC411"/>
<path d="M427.414 174.769C440.982 174.769 451.981 163.691 451.981 150.027C451.981 136.362 440.982 125.285 427.414 125.285C413.846 125.285 402.847 136.362 402.847 150.027C402.847 163.691 413.846 174.769 427.414 174.769Z" fill="#072C75"/>
<path d="M416.574 142.354C419.297 139.219 420.086 135.445 418.336 133.925C416.587 132.405 412.96 133.715 410.237 136.85C407.514 139.985 406.725 143.759 408.475 145.279C410.225 146.799 413.851 145.489 416.574 142.354Z" fill="white"/>
<path d="M554.36 302.676L565.376 264.295H134.18C134.18 264.295 172.736 552.983 174.572 603.779C176.408 654.575 163.556 645.919 200.276 648.367C236.996 650.815 581.9 635.952 581.9 635.952C581.9 635.952 603.931 630.969 592.916 592.588C581.9 554.207 554.36 302.676 554.36 302.676Z" fill="#072047" stroke="black" stroke-width="5" stroke-miterlimit="10"/>
<path d="M134.18 264.295C134.18 264.295 87.5809 246.985 86.3569 237.63C85.1329 228.275 65.8987 598.621 90.2912 620.128C114.684 641.635 183.752 647.843 183.752 647.843C183.752 647.843 171.949 500.963 134.18 264.295Z" fill="#072047" stroke="black" stroke-width="5" stroke-miterlimit="10"/>
<path d="M390.17 235.794C390.17 235.794 405.47 252.58 413.95 233.521" stroke="black" stroke-width="3" stroke-miterlimit="10" stroke-linecap="round"/>
<path d="M389.908 236.93C389.908 236.93 374.608 253.716 366.127 234.657" stroke="black" stroke-width="3" stroke-miterlimit="10" stroke-linecap="round"/>
<path d="M166 253.462C151.667 204.129 100.6 118.362 11 169.962" stroke="#F4B8CD" stroke-width="20" stroke-linecap="round"/>
</svg>
