<svg width="1195" height="1188" viewBox="0 0 1195 1188" fill="none" xmlns="http://www.w3.org/2000/svg">
<path d="M1160.12 549.133C1160.12 584.222 713.317 644.459 489.915 670.191L503.951 591.24C722.674 562.584 1160.12 514.044 1160.12 549.133Z" fill="#FDF28A" stroke="black" stroke-width="5"/>
<path d="M221.494 866.29C174.016 1031.15 312.827 1080.12 378.994 1081.79C378.994 1081.79 379.277 1109.3 388 1123.5C395.644 1135.94 414.5 1150.5 414.5 1150.5C261 1150.5 193.6 1088.79 159.993 1030.29C113.817 949.91 164.993 797.79 177.993 725.79C188.393 668.19 159.993 658.79 136.993 662.29C113.993 665.79 38.6936 720.89 9.49357 675.29C-19.7064 629.69 56.2272 598.866 104.994 593.79C239.494 579.791 284.993 645.79 221.494 866.29Z" stroke="black" stroke-width="6"/>
<path d="M928.53 1143.89C928.53 1143.89 849.979 974.685 875.896 861.425C901.813 748.164 961.097 802.616 987.5 844C1013.9 885.384 987.5 1088 987.5 1088C1033.82 1069.75 1048.41 1117.02 1049 1141L928.53 1143.89Z" stroke="black" stroke-width="6"/>
<path d="M436.5 898C522.5 709.5 581.408 572.525 659.189 491.234L667.961 464.917L1045.17 414.038C1063.89 479.538 1045.17 772 1045.17 820C1045.17 985.484 842.823 1115.82 759.194 1166.7C667.377 1170.8 471.813 1174.07 424.091 1154.42C376.37 1134.77 350.5 1086.5 436.5 898Z" stroke="black" stroke-width="6"/>
<path d="M1124.86 493.263L1146.88 544.886L545.453 619.667C545.453 619.667 549.163 210.322 542.915 139.154C536.666 67.986 520.242 82.2873 571.033 72.5046C621.825 62.7219 1105.47 23.6363 1105.47 23.6363C1105.47 23.6363 1137.07 26.7662 1128.36 82.2101C1119.65 137.654 1124.86 493.263 1124.86 493.263Z" fill="#072047" stroke="black" stroke-width="5" stroke-miterlimit="10"/>
<path d="M545.453 619.667C545.453 619.667 483.459 651.893 483.374 665.154C483.29 678.414 392.234 165.195 422.526 130.967C452.818 96.7382 548.078 76.1018 548.078 76.1018C548.078 76.1018 557.088 283.015 545.453 619.667Z" fill="#072047" stroke="black" stroke-width="5" stroke-miterlimit="10"/>
<path d="M807.472 1184.25C807.472 1184.25 672.202 901.26 725.013 812.3C777.823 723.341 835.675 772.034 858 807.5C880.325 842.967 858 1113.5 858 1113.5C934.5 1105.5 922.433 1153.25 916 1184.25H807.472Z" stroke="black" stroke-width="6"/>
<path d="M591 1099C686 1099 695 1145.33 686 1168.5C686 1168.5 602.379 1171.32 539.5 1169.5C533.5 1169.33 530 1161.42 530 1161.42C526.8 1121.42 534 1097.42 568.5 1097.42L591 1099Z" stroke="black" stroke-width="6"/>
</svg>
