<svg width="364" height="307" viewBox="0 0 364 307" fill="none" xmlns="http://www.w3.org/2000/svg">
<circle cx="307.609" cy="121.27" r="8.81637" transform="rotate(-18.794 307.609 121.27)" fill="#102D71" stroke="black" stroke-width="3"/>
<ellipse cx="308.831" cy="117.08" rx="3.86864" ry="1.71939" transform="rotate(8.56702 308.831 117.08)" fill="white"/>
<path d="M268.691 126.486C285.228 108.692 309.595 71.076 274.762 62.9649C239.928 54.8539 256.201 101.933 268.691 126.486Z" fill="#DF7656" stroke="black" stroke-width="5"/>
<path d="M89.9649 159.92C68.0943 169.482 28.1532 196.303 43.3531 227.091C58.553 257.88 83.5538 241.149 99.9399 233.261C117.106 224.998 149.159 222.051 140.038 276.373" stroke="#DF7656" stroke-width="9" stroke-linecap="round"/>
<path d="M331.428 144.808C368.386 192.071 260.064 202.846 196.005 204.516C182.014 206.099 148.162 205.359 125.713 202.102C82.7249 195.864 50.8409 76.1018 138.785 53.7171C234.057 29.467 295.252 98.5454 331.428 144.808Z" fill="#F4B8CD" stroke="black" stroke-width="5"/>
<circle cx="275.971" cy="148.383" r="8.81637" transform="rotate(-18.794 275.971 148.383)" fill="#102D71" stroke="black" stroke-width="3"/>
<ellipse cx="337.839" cy="157.61" rx="6.87758" ry="10.3164" transform="rotate(8.9796 337.839 157.61)" fill="black"/>
<path d="M253.688 128.269C239.428 108.602 207.234 77.4218 192.54 110.029C177.846 142.636 227.183 135.775 253.688 128.269Z" fill="#DF7656" stroke="black" stroke-width="5"/>
<ellipse cx="277.193" cy="144.193" rx="3.86864" ry="1.71939" transform="rotate(8.56702 277.193 144.193)" fill="white"/>
</svg>
