<svg width="480" height="285" viewBox="0 0 480 285" fill="none" xmlns="http://www.w3.org/2000/svg">
<path d="M158.109 112.967C158.109 112.967 312.137 153.543 318.811 179.737" stroke="black" stroke-width="6" stroke-miterlimit="10"/>
<path d="M290.059 269.619C290.059 269.619 295.707 153.029 356.805 93.4501C356.805 93.4501 477.46 154.57 476.433 199.254C476.433 204.39 472.839 208.499 467.705 210.04C455.383 213.122 431.252 220.312 428.684 226.989C425.604 235.72 447.168 265.51 434.332 272.701C420.983 280.405 358.345 289.65 290.059 269.619Z" fill="#DF7656" stroke="black" stroke-width="6" stroke-miterlimit="10"/>
<path d="M161.702 83.6913C151.947 57.4972 126.276 16.4082 60.0438 4.08154C60.0438 4.08154 35.9128 41.0616 68.2586 89.3411C68.2586 89.3411 20.51 105.777 4.59375 144.811C4.59375 144.811 117.034 199.768 161.702 124.267C166.323 115.535 164.783 92.9364 161.702 83.6913Z" fill="#F4B8CD" stroke="black" stroke-width="6" stroke-miterlimit="10"/>
<path d="M249.498 68.283C249.498 68.283 203.803 87.2866 188.914 123.753C175.051 157.138 183.779 194.118 183.779 194.118" stroke="black" stroke-width="6" stroke-miterlimit="10" stroke-linecap="round" stroke-linejoin="round"/>
<path d="M284.411 82.1506C284.411 82.1506 238.203 109.886 228.961 137.621C222.287 157.651 221.773 182.818 225.367 209.013" stroke="black" stroke-width="6" stroke-miterlimit="10" stroke-linecap="round" stroke-linejoin="round"/>
<path d="M317.784 100.641C317.784 100.641 276.197 116.563 267.469 153.543C258.74 190.523 267.469 223.394 267.469 223.394" stroke="black" stroke-width="6" stroke-miterlimit="10" stroke-linecap="round" stroke-linejoin="round"/>
<path d="M383.503 194.118C400.233 194.118 413.795 180.551 413.795 163.815C413.795 147.079 400.233 133.512 383.503 133.512C366.773 133.512 353.211 147.079 353.211 163.815C353.211 180.551 366.773 194.118 383.503 194.118Z" fill="white" stroke="black" stroke-width="6" stroke-miterlimit="10" stroke-linecap="round" stroke-linejoin="round"/>
<path d="M382.99 178.71C392.064 178.71 399.42 171.351 399.42 162.274C399.42 153.197 392.064 145.839 382.99 145.839C373.916 145.839 366.561 153.197 366.561 162.274C366.561 171.351 373.916 178.71 382.99 178.71Z" fill="black"/>
</svg>
